<svg version="1.1" id="Layer_1" xmlns="http://www.w3.org/2000/svg" xmlns:xlink="http://www.w3.org/1999/xlink" x="0px"
     y="0px" viewBox="0 0 512 512" style="enable-background:new 0 0 512 512;" xml:space="preserve">
    <path style="fill:#ff6600;" d="M256.001,0.524c-81.082,0-147.047,65.965-147.047,147.046c0,81.082,65.965,147.046,147.047,147.046 s147.046-65.965,147.046-147.046S337.083,0.524,256.001,0.524z"/>
    <path style="fill:#e05a00;"
          d="M256.001,0.524c-4.355,0-8.663,0.201-12.923,0.574c75.052,6.567,134.123,69.745,134.123,146.472 s-59.072,139.906-134.123,146.471c4.26,0.372,8.568,0.574,12.923,0.574c81.082,0,147.046-65.965,147.046-147.046 C403.047,66.489,337.083,0.524,256.001,0.524z"/>
    <circle style="fill:#fff" cx="256.001" cy="147.568" r="100.026"/>
    <path style="fill:#ff6600;"
          d="M256.001,255.105c-59.294,0-107.534-48.24-107.534-107.534s48.24-107.534,107.534-107.534 s107.533,48.24,107.533,107.534C363.535,206.865,315.295,255.105,256.001,255.105z M256.001,55.05 c-51.017,0-92.521,41.505-92.521,92.521s41.505,92.521,92.521,92.521s92.52-41.505,92.52-92.521 C348.522,96.554,307.017,55.05,256.001,55.05z"/>
    <g><path style="fill:#e05a00;" d="M238.614,154.963l-23.915,26.242c-2.792,3.064-2.572,7.812,0.491,10.604 c1.439,1.312,3.249,1.959,5.054,1.959c2.038,0,4.069-0.826,5.55-2.45l23.915-26.242c2.792-3.064,2.572-7.812-0.491-10.604 C246.154,151.679,241.406,151.899,238.614,154.963z"/>
        <path style="fill:#ff6600;"
              d="M256.001,72.14c-4.147,0-7.506,3.361-7.506,7.506v48.645c0,4.146,3.36,7.506,7.506,7.506 c4.147,0,7.506-3.361,7.506-7.506V79.646C263.507,75.501,260.148,72.14,256.001,72.14z"/></g>
    <circle style="fill:#ff6600;" cx="256.001" cy="146.367" r="18.076"/>
    <path style="fill:#ff6600;"
          d="M256.001,171.945c-14.105,0-25.581-11.475-25.581-25.58s11.476-25.58,25.581-25.58 c14.105,0,25.58,11.475,25.58,25.58C281.581,160.47,270.106,171.945,256.001,171.945z M256.001,135.798 c-5.827,0-10.568,4.74-10.568,10.567s4.74,10.567,10.568,10.567c5.826,0,10.567-4.74,10.567-10.567 C266.568,140.538,261.828,135.798,256.001,135.798z"/>
    <path style="fill:#e05a00;"
          d="M359.91,306.864c-7.829-10.634-22.003-13.91-33.704-7.783l-99.531,52.112 c-3.062,1.603-4.633,5.087-3.808,8.443c0.826,3.356,3.834,5.714,7.289,5.714l83.286-0.001c1.247,0,2.476-0.311,3.572-0.905 l34.149-18.481c6.759-3.658,11.598-10.058,13.275-17.558C366.117,320.905,364.466,313.054,359.91,306.864z"/>
    <path style="fill:#e05a00;"
          d="M313.442,365.349c1.247,0,2.476-0.311,3.572-0.905l34.149-18.481 c6.759-3.658,11.598-10.058,13.275-17.558c1.324-5.92,0.566-12.055-2.049-17.424l-98.658,54.368L313.442,365.349z"/>
    <path style="fill:#e05a00;"
          d="M412.71,323.441c-7.128-11.761-22.187-15.847-34.284-9.303l-68.558,37.104 c-3.023,1.635-4.548,5.113-3.704,8.444c0.844,3.331,3.841,5.664,7.277,5.664h17.097c7.137,0,12.944,5.806,12.944,12.943 c0,2.629,1.375,5.067,3.626,6.426c1.191,0.719,2.534,1.081,3.88,1.081c1.198,0,2.399-0.287,3.495-0.864l48.193-25.356 c6.257-3.292,10.931-9.089,12.824-15.902C417.392,336.865,416.376,329.489,412.71,323.441z"/>
    <path style="fill:#e05a00;"
          d="M415.501,343.679c1.893-6.814,0.876-14.19-2.789-20.238c-0.314-0.517-0.648-1.015-0.992-1.502 l-78.306,43.745c5.756,1.312,10.069,6.463,10.069,12.61c0,2.629,1.375,5.067,3.626,6.426c1.191,0.719,2.534,1.081,3.88,1.081 c1.198,0,2.399-0.287,3.495-0.864l48.193-25.356C408.934,356.288,413.608,350.492,415.501,343.679z"/>
    <path style="fill:#e05a00;"
          d="M467.486,333.862c-7.51-10.496-21.786-13.879-33.21-7.87l-86.783,45.658 c-2.467,1.297-4.011,3.855-4.011,6.644c0,6.505-4.866,12.025-11.321,12.841l-127.23,16.086c-3.761,0.475-6.577,3.679-6.566,7.469 c0.012,3.79,2.846,6.978,6.611,7.43l54.035,6.502c10.059,1.21,20.106,1.812,30.102,1.812c42.014,0,83.121-10.621,120.355-31.284 l49.499-27.47c6.468-3.589,11.109-9.784,12.734-17C473.326,347.464,471.789,339.876,467.486,333.862z"/>
    <path style="fill:#b84900;"
          d="M409.468,399.149l49.499-27.47c6.468-3.589,11.109-9.784,12.734-17 c1.358-6.033,0.498-12.324-2.333-17.74l-124.445,67.605c0,0-21.034-3.629-27.144-3.877c-2.295-0.093-28.428-0.116-60.165-0.109 l-52.681,6.661c-3.761,0.475-6.577,3.679-6.566,7.469c0.012,3.79,2.846,6.978,6.611,7.43l54.035,6.502 c10.059,1.21,20.106,1.812,30.102,1.812C331.128,430.433,372.234,419.811,409.468,399.149z"/>
    <path style="fill:#ff6600;"
          d="M506.197,356.519c-8.513-11.269-23.766-14.671-36.262-8.093c-0.049,0.026-0.098,0.052-0.147,0.079 l-67.604,37.516c-41.325,22.933-87.735,32.696-134.611,28.412l66.472-8.404c13.939-1.762,24.45-13.686,24.45-27.736 c0-15.414-12.541-27.956-27.956-27.956h-98.86c-7.954-3.25-44.517-16.684-87.731-8.652c-41.679,7.748-75.805,32.902-84.656,39.889 H7.506c-4.146,0-7.506,3.361-7.506,7.506v99.221c0,4.146,3.361,7.506,7.506,7.506h54.108l170.145,15.162 c3.843,0.342,7.676,0.506,11.511,0.506c48.788-0.002,96.8-26.571,139.518-50.214c5.19-2.872,10.317-5.709,15.37-8.459l98.856-53.776 c7.345-3.996,12.571-10.975,14.336-19.148C513.117,371.705,511.238,363.191,506.197,356.519z"/>
    <path style="fill:#ff6600;"
          d="M497.015,370.688l-98.856,53.776c-5.054,2.749-10.181,5.587-15.37,8.459 c-42.72,23.643-90.73,50.211-139.518,50.214c-3.835,0-7.668-0.164-11.511-0.506L61.614,467.468H7.506 c-4.146,0-7.506-3.361-7.506-7.506v28.339c0,4.146,3.361,7.506,7.506,7.506h54.108l170.145,15.162 c3.843,0.342,7.676,0.506,11.511,0.506c48.788-0.002,96.8-26.571,139.518-50.214c5.19-2.872,10.317-5.709,15.37-8.459l98.856-53.776 c7.345-3.996,12.571-10.975,14.336-19.148c1.499-6.944,0.36-14.13-3.106-20.227C505.632,364.256,501.772,368.099,497.015,370.688z"/>
</svg>