<!-- icon666.com - MILLIONS vector ICONS FREE -->
<svg version="1.1" id="Capa_1" xmlns="http://www.w3.org/2000/svg" xmlns:xlink="http://www.w3.org/1999/xlink" x="0px"
     y="0px" viewBox="0 0 512.001 512.001" style="enable-background:new 0 0 512.001 512.001;" xml:space="preserve">
    <g>
        <path style="fill: rgb(254, 70, 0);"
              d="M276.274,71.447c-0.339-0.409-13.255-13.877-13.625-14.262c-2.951-3.081-7.843-3.188-10.924-0.236 c-2.911,2.788-3.413,7.603-0.057,11.111c-13.799,0.379-30.102,2.905-44.644,7.281l6.594,14.324 c12.906-3.892,25.447-5.75,38.166-6.146c-6.278,6.014-1.738,13.926,4.699,13.926c4.015,0,4.342-1.188,19.231-15.449 C278.675,79.161,278.88,74.538,276.274,71.447z"
              fill="#D3CDBF">
        </path>
        <path
                style="fill: rgb(254, 70, 0);"
                d="M399.849,305.343c8.293-15.859,14.474-35.619,17.129-54.496h-15.62 c-2.226,15.834-6.929,30.893-13.999,44.987c-1.064-3.938-5.029-6.401-9.068-5.539c-4.172,0.894-6.83,5.002-5.936,9.174l4.03,18.804 c0.766,3.576,3.926,6.108,7.554,6.108c1.142,0,0.033,0.168,20.422-4.202C413.787,318.161,412.253,302.687,399.849,305.343z"
                fill="#D3CDBF">
        </path>
        <path style="fill: rgb(254, 70, 0);"
              d="M125.278,297.041c3.645,1.085,7.622-0.653,9.234-4.213c1.76-3.887,0.035-8.466-3.853-10.226 l-17.519-7.929c-3.888-1.76-8.466-0.034-10.225,3.853l-7.929,17.519c-1.76,3.887-0.035,8.466,3.853,10.226 c3.888,1.76,8.466,0.033,10.225-3.853l0.773-1.706c8.116,16.8,21.945,36.11,35.188,49.18l7.877-15.155 C141.763,323.743,132.407,310.932,125.278,297.041z"
              fill="#D3CDBF">
        </path>
    </g>
    <circle style="fill: rgb(255, 102, 0);" cx="113.32" cy="139.075" r="113.32" fill="#E9E3D5"></circle>
    <path style="fill: rgb(254, 70, 0);"
          d="M168.83,40.27c-9.35,12.282-8.241,29.524,2.765,40.531c15.567,15.565,24.139,36.261,24.139,58.275 c0,22.013-8.572,42.709-24.139,58.275c-15.566,15.566-36.261,24.139-58.275,24.139s-42.709-8.572-58.275-24.14 c-5.838-5.837-13.598-9.051-21.853-9.051c-6.746,0-13.322,2.247-18.667,6.306c19.428,34.491,56.389,57.79,98.796,57.79 c62.585,0,113.32-50.735,113.32-113.32C226.64,96.661,203.332,59.695,168.83,40.27z"
          fill="#D3CDBF"></path>
    <circle style="fill: rgb(255, 102, 0);" cx="398.68" cy="139.075" r="113.32" fill="#8B9BA9"></circle>
    <g><path style="fill: rgb(254, 70, 0);" d="M454.191,40.27c-9.35,12.282-8.241,29.524,2.765,40.531c15.566,15.565,24.138,36.261,24.138,58.275 c0,22.013-8.572,42.709-24.139,58.275c-15.566,15.566-36.261,24.139-58.275,24.139c-22.014,0-42.709-8.572-58.275-24.14 c-5.838-5.837-13.598-9.051-21.853-9.051c-6.746,0-13.322,2.247-18.667,6.306c19.428,34.491,56.389,57.79,98.796,57.79 c62.585,0,113.32-50.735,113.32-113.32C512,96.661,488.693,59.695,454.191,40.27z" fill="#596775"></path>
        <path style="fill: rgb(255, 255, 255);"
              d="M366.223,131.515c-4.44,0.951-6.865,5.128-6.057,9.086c1.243,6.652,10.085,8.521,14,2.781 C378.002,137.557,372.853,130.155,366.223,131.515z"
              fill="#596775"></path>
        <path style="fill: rgb(255, 255, 255);"
              d="M397.159,131.515c-4.44,0.951-6.865,5.128-6.057,9.086c1.243,6.652,10.085,8.521,14,2.781 C408.937,137.557,403.788,130.155,397.159,131.515z"
              fill="#596775"></path>
        <path style="fill: rgb(255, 255, 255);"
              d="M428.093,131.515c-4.44,0.951-6.865,5.128-6.057,9.086c1.243,6.652,10.085,8.521,14,2.781 C439.872,137.557,434.723,130.155,428.093,131.515z"
              fill="#596775"></path></g>
    <circle style="fill: rgb(255, 102, 0);" cx="256" cy="372.926" r="113.32" fill="#60F375"></circle>
    <path style="fill: rgb(254, 70, 0);"
          d="M311.511,274.118c-9.35,12.282-8.242,29.523,2.765,40.53c15.566,15.565,24.139,36.261,24.139,58.275 c0,22.013-8.572,42.709-24.139,58.275c-15.566,15.566-36.261,24.139-58.275,24.139s-42.709-8.572-58.276-24.14 c-5.838-5.837-13.598-9.051-21.853-9.051c-6.745,0-13.322,2.248-18.667,6.306c19.428,34.491,56.389,57.791,98.796,57.791 c62.585,0,113.32-50.735,113.32-113.32C369.32,330.509,346.013,293.543,311.511,274.118z"
          fill="#28D05B"></path>
    <path style=""
          d="M225.437,415.849c-0.995,0-2-0.193-2.956-0.588c-2.888-1.195-4.77-4.014-4.77-7.138v-33.336 c0-4.268,3.459-7.726,7.726-7.726c4.267,0,7.726,3.458,7.726,7.726v14.683l48.621-48.621c3.017-3.016,7.91-3.016,10.926,0 c3.017,3.018,3.017,7.91,0,10.927l-61.811,61.811C229.423,415.065,227.446,415.849,225.437,415.849z"
          fill="#FFF9EB"></path>
    <g><path style="fill: rgb(254, 255, 255);" d="M142.015,117.074c-0.895-14.426-12.449-25.979-26.874-26.874 c-8.035-0.497-15.666,2.252-21.508,7.742c-5.76,5.414-9.064,13.051-9.064,20.954c0,4.268,3.459,7.726,7.726,7.726 c4.267,0,7.726-3.458,7.726-7.726c0-3.71,1.49-7.152,4.194-9.694c2.701-2.538,6.251-3.807,9.967-3.579 c6.552,0.407,12.003,5.858,12.41,12.41c0.364,5.851-3.053,11.189-8.503,13.283c-7.59,2.917-12.495,10.008-12.495,18.064v7.619 c0,4.268,3.459,7.726,7.726,7.726s7.726-3.458,7.726-7.726v-7.619c0-1.608,1.015-3.036,2.586-3.64 C135.411,141.212,142.799,129.693,142.015,117.074z" fill="#596775"></path>
        <path style="fill: rgb(255, 255, 255);"
              d="M120.459,177.325c-0.196-0.464-0.433-0.917-0.711-1.329c-0.288-0.422-0.608-0.824-0.968-1.174 c-0.35-0.362-0.752-0.68-1.174-0.959c-0.412-0.278-0.865-0.525-1.329-0.71c-0.464-0.196-0.958-0.34-1.442-0.444 c-0.999-0.205-2.029-0.205-3.029,0c-0.484,0.104-0.979,0.247-1.442,0.444c-0.464,0.185-0.917,0.433-1.329,0.71 c-0.422,0.279-0.824,0.598-1.174,0.959c-0.361,0.35-0.68,0.751-0.968,1.174c-0.278,0.412-0.515,0.865-0.711,1.329 c-0.185,0.474-0.34,0.958-0.433,1.453c-0.103,0.493-0.155,0.999-0.155,1.504c0,0.505,0.052,1.009,0.155,1.514 c0.093,0.494,0.247,0.979,0.433,1.442c0.196,0.463,0.433,0.917,0.711,1.339c0.288,0.422,0.608,0.814,0.968,1.174 c0.35,0.35,0.752,0.68,1.174,0.959c0.412,0.278,0.865,0.515,1.329,0.71c0.464,0.185,0.958,0.34,1.442,0.433 c0.505,0.104,1.01,0.155,1.514,0.155s1.01-0.052,1.514-0.155c0.484-0.093,0.979-0.247,1.442-0.433 c0.464-0.195,0.917-0.433,1.329-0.71c0.422-0.279,0.824-0.609,1.174-0.959c0.361-0.361,0.68-0.751,0.968-1.174 c0.278-0.422,0.515-0.877,0.711-1.339c0.185-0.464,0.34-0.948,0.433-1.442c0.103-0.505,0.155-1.009,0.155-1.514 c0-0.506-0.052-1.01-0.155-1.504C120.799,178.283,120.645,177.798,120.459,177.325z"
              fill="#596775"></path></g>
</svg>