<svg version="1.1" id="Layer_1" xmlns="http://www.w3.org/2000/svg" xmlns:xlink="http://www.w3.org/1999/xlink" x="0px"
     y="0px" viewBox="0 0 512 512" fill="#ff6600">
    <g><g><path d="M299.027,309.209c-20.006,0-36.281,16.275-36.281,36.28s16.275,36.28,36.281,36.28c20.005,0,36.28-16.275,36.28-36.28 S319.032,309.209,299.027,309.209z"/></g></g>
    <g><g><path d="M440.659,0H71.34c-5.947,0-10.766,4.82-10.766,10.766v490.467c0,5.947,4.82,10.766,10.766,10.766H440.66 c5.947,0,10.766-4.82,10.766-10.766V10.766C451.425,4.82,446.606,0,440.659,0z M209.514,49.4h91.743 c5.947,0,10.766,4.82,10.766,10.766c0,5.947-4.82,10.766-10.766,10.766h-91.743c-5.947,0-10.766-4.82-10.766-10.766 C198.747,54.219,203.567,49.4,209.514,49.4z M177.169,363.801h-55.28c-5.947,0-10.766-4.82-10.766-10.766 c0-5.947,4.82-10.766,10.766-10.766h55.28c5.947,0,10.766,4.82,10.766,10.766C187.936,358.981,183.116,363.801,177.169,363.801z M177.169,317.342h-55.28c-5.947,0-10.766-4.82-10.766-10.766c0-5.947,4.82-10.766,10.766-10.766h55.28 c5.947,0,10.766,4.82,10.766,10.766C187.936,312.522,183.116,317.342,177.169,317.342z M398.303,432.654 c-1.901,3.436-5.515,5.554-9.418,5.554c-0.146,0-0.292-0.002-0.438-0.01l-25.886-1.049l-8.373,24.517 c-1.317,3.856-4.697,6.637-8.733,7.188c-0.487,0.067-0.975,0.099-1.459,0.099c-3.518,0-6.856-1.727-8.88-4.682l-36.09-52.686 l-36.09,52.686c-2.023,2.955-5.36,4.682-8.88,4.682c-0.484,0-0.971-0.032-1.459-0.099c-4.036-0.551-7.416-3.333-8.732-7.188 l-8.374-24.517l-25.886,1.049c-0.146,0.007-0.292,0.01-0.437,0.01c-3.905,0-7.519-2.119-9.419-5.554 c-1.971-3.564-1.764-7.937,0.538-11.296l42.58-62.159c-1.074-4.397-1.657-8.986-1.657-13.71c0-31.878,25.936-57.813,57.814-57.813 c31.878,0,57.813,25.935,57.813,57.813c0,4.724-0.583,9.312-1.656,13.709l42.58,62.16 C400.066,424.717,400.275,429.089,398.303,432.654z M388.883,257.945H121.889c-5.947,0-10.766-4.82-10.766-10.766 s4.82-10.766,10.766-10.766h266.992c5.947,0,10.766,4.82,10.766,10.766S394.828,257.945,388.883,257.945z M388.883,200.312 H121.889c-5.947,0-10.766-4.82-10.766-10.766s4.82-10.766,10.766-10.766h266.992c5.947,0,10.766,4.82,10.766,10.766 S394.828,200.312,388.883,200.312z M388.883,142.679H121.889c-5.947,0-10.766-4.82-10.766-10.766 c0-5.947,4.82-10.766,10.766-10.766h266.992c5.947,0,10.766,4.82,10.766,10.766C399.648,137.86,394.828,142.679,388.883,142.679z" /></g></g></svg>