<!-- icon666.com - MILLIONS vector ICONS FREE -->
<svg version="1.1" id="Layer_1" xmlns="http://www.w3.org/2000/svg" xmlns:xlink="http://www.w3.org/1999/xlink"
     x="0px" y="0px" viewBox="0 0 512.001 512.001">
    <g>
        <path style="fill: rgb(255, 102, 0);" d="M184.891,202.369c0-19.884-16.269-36.153-36.153-36.153h-29.255v-24.88h0.316l15.135-16.668 c5.682-6.257,8.829-14.407,8.829-22.858V66.677c0-20.353-16.5-36.853-36.853-36.853H86.416c-20.353,0-36.853,16.5-36.853,36.853 v35.132c0,8.452,3.148,16.601,8.829,22.858l15.135,16.668h0.316v24.88H44.588c-19.884,0-36.153,16.269-36.153,36.153v49.717h169.23 L184.891,202.369z" fill="#7A609E"></path><path
            style="fill: rgb(255, 102, 0);"
            d="M328.587,202.369c0-19.884,16.269-36.153,36.153-36.153h29.255v-24.88h-0.316l-15.135-16.668 c-5.682-6.257-8.829-14.407-8.829-22.858V66.677c0-20.353,16.5-36.853,36.853-36.853h20.492c20.353,0,36.853,16.5,36.853,36.853 v35.132c0,8.452-3.148,16.601-8.829,22.858l-15.135,16.668h-0.316v24.88h29.255c19.884,0,36.153,16.269,36.153,36.153v49.717 H345.928L328.587,202.369z"
            fill="#7A609E">
        </path>
    </g>
    <path style="fill: rgb(255, 102, 0);"
          d="M244.999,46.553c-22.923,0-41.507,18.583-41.507,41.507v39.567c0,9.52,3.545,18.698,9.945,25.745 l17.046,18.773h0.356v28.022h-32.95c-22.395,0-40.718,18.323-40.718,40.718v55.995h198.736v-55.995 c0-22.395-18.323-40.718-40.718-40.718H282.24v-28.022h0.356l17.046-18.773c6.399-7.048,9.945-16.226,9.945-25.745V88.06 c0-22.924-18.583-41.507-41.507-41.507H244.999z"
          fill="#52D6C6"></path>
    <g style="opacity:0.1;"><path d="M315.189,200.167h-31.064c22.395,0,40.718,18.323,40.718,40.718v55.995h31.064v-55.995 C355.908,218.491,337.585,200.167,315.189,200.167z" fill="#000000"></path>
        <path d="M278.522,88.06v39.567c0,9.52-3.545,18.698-9.945,25.745l-17.046,18.773h-0.356v28.022h31.064v-28.022h0.356l17.046-18.773 c6.399-7.048,9.945-16.226,9.945-25.745V88.06c0-22.923-18.583-41.507-41.507-41.507h-23.08c-1.348,0-2.678,0.07-3.992,0.195 C262.057,48.757,278.522,66.483,278.522,88.06z"
              fill="#000000"></path></g>
    <g><polygon style="fill: rgb(255, 102, 0);" points="259.632,355.684 280.963,396.975 326.826,404.503 294.148,437.552 301.16,483.495 259.632,462.629 218.103,483.495 225.116,437.552 192.437,404.503 238.3,396.975 " fill="#FDC00F"></polygon>
        <polygon style="fill: rgb(255, 102, 0);"
                 points="428.121,299.088 449.453,340.38 495.315,347.909 462.637,380.956 469.649,426.9 428.121,406.033 386.592,426.9 393.605,380.956 360.927,347.909 406.788,340.38 "
                 fill="#FDC00F"></polygon>
        <polygon style="fill: rgb(255, 102, 0);"
                 points="91.142,299.088 112.475,340.38 158.338,347.909 125.659,380.956 132.671,426.9 91.142,406.033 49.615,426.9 56.627,380.956 23.948,347.909 69.811,340.38 "
                 fill="#FDC00F"></polygon></g>



</svg>